<svg width="32" height="32" viewBox="0 0 32 32" fill="none" xmlns="http://www.w3.org/2000/svg">
<rect width="32" height="32" rx="3" fill="#F7F7F7"/>
<path d="M11.0752 12.0947L10.3574 15.5908L11.4414 20H9.53711C9.30924 19.2122 9.10091 18.2536 8.91211 17.124C8.86003 17.6221 8.78841 18.151 8.69727 18.7109L8.50195 20H6.5L7.24219 15.5908L6.5 12.0947H8.4873C8.52311 12.3128 8.59473 12.6758 8.70215 13.1836C8.78678 13.571 8.85677 13.9258 8.91211 14.248L9.35156 12.0947H11.0752Z" fill="#DB0408"/>
<path d="M13.6484 13.5205L13.5703 14.3701C13.8568 13.7614 14.2718 13.4391 14.8154 13.4033V15.6836C14.4541 15.6836 14.1888 15.7324 14.0195 15.8301C13.8503 15.9277 13.7461 16.0645 13.707 16.2402C13.668 16.4128 13.6484 16.8132 13.6484 17.4414V20H11.6758V13.5205H13.6484ZM19.7764 13.5205V20H17.7695L17.8037 19.4629C17.667 19.681 17.4977 19.8454 17.2959 19.9561C17.0973 20.0635 16.8678 20.1172 16.6074 20.1172C16.3112 20.1172 16.0654 20.0651 15.8701 19.9609C15.6748 19.8568 15.5299 19.7184 15.4355 19.5459C15.3444 19.3734 15.2874 19.1943 15.2646 19.0088C15.2419 18.82 15.2305 18.4473 15.2305 17.8906V13.5205H17.2031V17.9297C17.2031 18.4342 17.2178 18.7337 17.2471 18.8281C17.2796 18.9225 17.3643 18.9697 17.501 18.9697C17.6475 18.9697 17.7337 18.9209 17.7598 18.8232C17.7891 18.7256 17.8037 18.4115 17.8037 17.8809V13.5205H19.7764ZM22.4912 13.5205L22.457 14.1162C22.6003 13.8786 22.7744 13.7012 22.9795 13.584C23.1878 13.4635 23.4271 13.4033 23.6973 13.4033C24.0358 13.4033 24.3125 13.4831 24.5273 13.6426C24.7422 13.8021 24.8805 14.0039 24.9424 14.248C25.0042 14.4889 25.0352 14.8926 25.0352 15.459V20H23.0625V15.5127C23.0625 15.0667 23.0479 14.7949 23.0186 14.6973C22.9893 14.5996 22.9079 14.5508 22.7744 14.5508C22.6344 14.5508 22.5465 14.6077 22.5107 14.7217C22.4749 14.8324 22.457 15.1318 22.457 15.6201V20H20.4844V13.5205H22.4912Z" fill="#101010"/>
</svg>
